<?xml version="1.0" encoding="utf-8"?>
<?xml-stylesheet type="text/xsl" href="rss1.xsl"?>
<rss version="2.0" xmlns:atom="http://www.w3.org/2005/Atom" xmlns:content="http://purl.org/rss/1.0/modules/content/" xmlns:dc="http://purl.org/dc/elements/1.1/" xmlns:media="http://search.yahoo.com/mrss/">
<channel>
 <title>Getty</title>
 <link>http://www.gettyimg.com/</link>
 <atom:link href="http://www.gettyimg.com/" rel="self" type="application/rss+xml" />

 
                <item>
                <title><![CDATA[【HD Live Performances】HDTV - Calum Scott - Rock In Rio Lisboa 2024 HDTV H264 1080i MP2-ilya2129]]></title>
                <link><![CDATA[https://sharemania.us/threads/calum-scott-rock-in-rio-lisboa-2024-hdtv-h264-1080i-mp2-ilya2129.247303/]]></link>
                <description><![CDATA[<article>
<blockquote class="messageText SelectQuoteContainer ugc baseHtml">
<div style="text-align: center"><img src="https://i120.fastpic.org/big/2022/0620/9e/704b1806aa4f5dc741d35a32e2158b9e.png?r=1" class="bbCodeImage LbImage" alt="[​IMG]" data-url="https://i120.fastpic.org/big/2022/0620/9e/704b1806aa4f5dc741d35a32e2158b9e.png?r=1" style=""><br>
<br>
<a href="https://fastpic.org/view/123/2024/0617/_9ef6be47829c87678b9bc679c3059b81.png.html" target="_blank" class="externalLink" rel="nofollow"><img src="https://i123.fastpic.org/thumb/2024/0617/81/_9ef6be47829c87678b9bc679c3059b81.jpeg" class="bbCodeImage LbImage" alt="[​IMG]" data-url="https://i123.fastpic.org/thumb/2024/0617/81/_9ef6be47829c87678b9bc679c3059b81.jpeg"></a> <a href="https://fastpic.org/view/123/2024/0617/_7d1f56a5894db9e3d2f16b377dc619bd.png.html" target="_blank" class="externalLink" rel="nofollow"><img src="https://i123.fastpic.org/thumb/2024/0617/bd/_7d1f56a5894db9e3d2f16b377dc619bd.jpeg" class="bbCodeImage LbImage" alt="[​IMG]" data-url="https://i123.fastpic.org/thumb/2024/0617/bd/_7d1f56a5894db9e3d2f16b377dc619bd.jpeg"></a> <a href="https://fastpic.org/view/123/2024/0617/_46e833d52f87c018ac69f6857e2de9d3.png.html" target="_blank" class="externalLink" rel="nofollow"><img src="https://i123.fastpic.org/thumb/2024/0617/d3/_46e833d52f87c018ac69f6857e2de9d3.jpeg" class="bbCodeImage LbImage" alt="[​IMG]" data-url="https://i123.fastpic.org/thumb/2024/0617/d3/_46e833d52f87c018ac69f6857e2de9d3.jpeg"></a> <a href="https://fastpic.org/view/123/2024/0617/_c9e229ba33f94ee18496d858a621bf9e.png.html" target="_blank" class="externalLink" rel="nofollow"><img src="https://i123.fastpic.org/thumb/2024/0617/9e/_c9e229ba33f94ee18496d858a621bf9e.jpeg" class="bbCodeImage LbImage" alt="[​IMG]" data-url="https://i123.fastpic.org/thumb/2024/0617/9e/_c9e229ba33f94ee18496d858a621bf9e.jpeg"></a> <a href="https://fastpic.org/view/123/2024/0617/_012a53e4978356bb83a472ae26766f67.png.html" target="_blank" class="externalLink" rel="nofollow"><img src="https://i123.fastpic.org/thumb/2024/0617/67/_012a53e4978356bb83a472ae26766f67.jpeg" class="bbCodeImage LbImage" alt="[​IMG]" data-url="https://i123.fastpic.org/thumb/2024/0617/67/_012a53e4978356bb83a472ae26766f67.jpeg"></a><br>
<br>
​</div><br>
<div class="bbCodeBlock bbCodeCode">
<div class="type">Code:</div>
<pre>General
ID                                       : 1 (0x1)
Complete name                            : C:\Recordings\Calum Scott - Rock In Rio Lisboa 2024 HDTV H264 1080i MP2-ilya2129.ts
Format                                   : MPEG-TS
File size                                : 3.39 GiB
Duration                                 : 1 h 13 min
Overall bit rate mode                    : Variable
Overall bit rate                         : 6 615 kb/s
Frame rate                               : 25.000 FPS

Video
ID                                       : 302 (0x12E)
Menu ID                                  : 1 (0x1)
Format                                   : AVC
Format/Info                              : Advanced Video Codec
Format profile                           : High@L4
Format settings                          : CABAC / 4 Ref Frames
Format settings, CABAC                   : Yes
Format settings, Reference frames        : 4 frames
Format settings, GOP                     : M=4, N=28
Codec ID                                 : 27
Duration                                 : 1 h 13 min
Bit rate                                 : 6 095 kb/s
Width                                    : 1 920 pixels
Height                                   : 1 080 pixels
Display aspect ratio                     : 16:9
Active Format Description                : Full frame 16:9 image
Frame rate                               : 25.000 FPS
Standard                                 : Component
Color space                              : YUV
Chroma subsampling                       : 4:2:0
Bit depth                                : 8 bits
Scan type                                : Interlaced
Scan type, store method                  : Separated fields
Scan order                               : Top Field First
Bits/(Pixel*Frame)                       : 0.118
Stream size                              : 3.13 GiB (92%)
Color range                              : Limited
Color primaries                          : BT.709
Transfer characteristics                 : BT.709
Matrix coefficients                      : BT.709

Audio
ID                                       : 303 (0x12F)
Menu ID                                  : 1 (0x1)
Format                                   : MPEG Audio
Format version                           : Version 1
Format profile                           : Layer 2
Codec ID                                 : 3
Duration                                 : 1 h 13 min
Bit rate mode                            : Constant
Bit rate                                 : 192 kb/s
Channel(s)                               : 2 channels
Sampling rate                            : 48.0 kHz
Frame rate                               : 41.667 FPS (1152 SPF)
Compression mode                         : Lossy
Stream size                              : 101 MiB (3%)
Language                                 : Portuguese



</pre>
</div><div style="text-align: center"><br>
<div class="bbCodeBlock bbCodeVfcHH HiddenContent">
<div class="attribution type">Hidden Content:</div>
<blockquote>You must reply before you can see the hidden data contained here.</blockquote>
</div></div>
<div class="messageTextEndMarker">&nbsp;</div>
</blockquote>
</article>]]></description>
                <author><![CDATA[ilya2129]]></author>
                </item>

                
                <item>
                <title><![CDATA[【Requests】[REQ AUD] - Three 6 Mafia Albums (Flac)]]></title>
                <link><![CDATA[https://sharemania.us/threads/three-6-mafia-albums-flac.247305/]]></link>
                <description><![CDATA[<article>
<blockquote class="messageText SelectQuoteContainer ugc baseHtml">
thank u very much
<div class="messageTextEndMarker">&nbsp;</div>
</blockquote>
</article>]]></description>
                <author><![CDATA[Nico Robin]]></author>
                </item>

                
                <item>
                <title><![CDATA[【Singles (lossless)】FLAC - Kwon Eun Bi - The 2nd Single Album - «Sabotage» [FLAC 24Bit/96kHz]]]></title>
                <link><![CDATA[https://sharemania.us/threads/kwon-eun-bi-the-2nd-single-album-%C2%ABsabotage%C2%BB-flac-24bit-96khz.247304/]]></link>
                <description><![CDATA[<article>
<blockquote class="messageText SelectQuoteContainer ugc baseHtml">
3 albums please.<br>
<br>
<a href="https://www.qobuz.com/us-en/album/most-known-unknown-three-6-mafia/ug52ho1lb679b" target="_blank" class="externalLink" rel="nofollow">https://www.qobuz.com/us-en/album/most-known-unknown-three-6-mafia/ug52ho1lb679b</a><br>
<br>
<a href="https://www.qobuz.com/us-en/album/most-known-hits-three-6-mafia/0828767500720" target="_blank" class="externalLink" rel="nofollow">https://www.qobuz.com/us-en/album/most-known-hits-three-6-mafia/0828767500720</a><br>
<br>
<a href="https://www.qobuz.com/us-en/album/da-unbreakables-explicit-version-three-6-mafia/0884977854190" target="_blank" class="externalLink" rel="nofollow">https://www.qobuz.com/us-en/album/da-unbreakables-explicit-version-three-6-mafia/0884977854190</a>
<div class="messageTextEndMarker">&nbsp;</div>
</blockquote>
</article>]]></description>
                <author><![CDATA[WithLoveSNSD]]></author>
                </item>

                </channel></rss>